<svg xmlns="http://www.w3.org/2000/svg" xmlns:xlink="http://www.w3.org/1999/xlink" width="820" zoomAndPan="magnify" viewBox="0 0 615 262.499992" height="350" preserveAspectRatio="xMidYMid meet" version="1.0"><path fill="#ffffff" d="M 365.371094 125.96875 L 353.445312 125.96875 C 352.34375 124.867188 351.71875 123.214844 351.566406 120.953125 C 348.660156 125.035156 344.746094 127.070312 339.640625 127.070312 C 331.09375 127.070312 325.910156 121.976562 325.910156 114.683594 C 325.910156 107.390625 331.949219 103.234375 341.121094 101.75 L 351 100.175781 L 351 99.472656 C 351 95.710938 348.964844 93.828125 344.960938 93.828125 C 341.425781 93.828125 338.996094 95.160156 338.996094 97.363281 C 338.996094 97.589844 338.996094 97.835938 339.074219 98.066406 L 328.402344 101.671875 C 328.003906 100.097656 327.773438 98.84375 327.773438 97.910156 C 327.773438 94.378906 329.425781 91.476562 332.636719 89.289062 C 335.921875 87.085938 340.003906 86 344.945312 86 C 356.792969 86 362.742188 90.941406 362.742188 100.742188 L 362.742188 116.351562 C 362.742188 120.265625 363.597656 123.492188 365.324219 126 Z M 342.070312 117.972656 C 344.730469 117.972656 346.855469 117.023438 348.492188 115.144531 C 350.144531 113.1875 351 110.984375 351 108.476562 L 351 107.773438 L 342.679688 109.179688 C 339.148438 109.730469 337.34375 111.289062 337.34375 113.890625 C 337.34375 116.089844 339.226562 117.972656 342.054688 117.972656 Z M 342.070312 117.972656 " fill-opacity="1" fill-rule="nonzero"/><path fill="#ffffff" d="M 323.769531 105.417969 L 323.769531 109.425781 L 294.992188 109.425781 C 295.621094 114.132812 299.535156 117.023438 304.320312 117.023438 C 308.480469 117.023438 311.765625 114.992188 314.195312 110.90625 L 322.667969 115.695312 C 318.984375 123.308594 312.714844 127.070312 303.847656 127.070312 C 298.433594 127.070312 293.722656 125.113281 289.734375 121.257812 C 285.820312 117.421875 283.847656 112.484375 283.847656 106.519531 C 283.847656 100.558594 285.804688 95.542969 289.734375 91.703125 C 293.648438 87.867188 298.601562 85.984375 304.640625 85.984375 C 310.359375 85.984375 314.914062 87.867188 318.449219 91.628906 C 321.980469 95.3125 323.785156 99.945312 323.785156 105.433594 Z M 304.394531 95.066406 C 300.085938 95.066406 296.707031 97.347656 295.453125 101.183594 L 313.171875 101.183594 C 312.222656 97.347656 308.859375 95.066406 304.394531 95.066406 Z M 304.394531 95.066406 " fill-opacity="1" fill-rule="nonzero"/><path fill="#ffffff" d="M 262.898438 96.167969 L 257.257812 96.167969 L 257.257812 87.070312 L 262.898438 87.070312 L 262.898438 76.566406 L 274.65625 76.566406 L 274.65625 87.070312 L 282.730469 87.070312 L 282.730469 96.167969 L 274.65625 96.167969 L 274.65625 111.535156 C 274.65625 114.667969 276.234375 116.550781 278.96875 116.550781 C 280.300781 116.550781 281.554688 116.320312 282.65625 115.921875 L 283.753906 125.722656 C 281.402344 126.578125 278.816406 127.054688 275.910156 127.054688 C 272.226562 127.054688 269.167969 126.03125 266.660156 123.917969 C 264.152344 121.808594 262.898438 118.507812 262.898438 113.875 L 262.898438 96.152344 Z M 262.898438 96.167969 " fill-opacity="1" fill-rule="nonzero"/><path fill="#ffffff" d="M 239.382812 92.714844 C 251.539062 95.296875 256.953125 100.328125 256.953125 109.410156 C 256.953125 114.425781 255.148438 118.660156 251.464844 122.039062 C 247.777344 125.417969 242.765625 127.054688 236.328125 127.054688 C 223.46875 127.054688 215.472656 121.089844 212.246094 109.257812 L 222.996094 104.074219 C 224.953125 111.917969 228.878906 115.90625 236.328125 115.90625 C 241.265625 115.90625 244.476562 113.476562 244.476562 110.265625 C 244.476562 106.183594 240.636719 103.753906 232.167969 102.191406 C 220.640625 99.914062 214.921875 94.425781 214.921875 85.726562 C 214.921875 80.941406 216.726562 77.179688 220.332031 74.273438 C 223.941406 71.371094 228.726562 69.960938 234.691406 69.960938 C 245.4375 69.960938 252.183594 74.59375 256.019531 84.320312 L 246.523438 89.960938 C 244.324219 83.523438 240.332031 80.3125 234.445312 80.3125 C 229.738281 80.3125 226.375 82.421875 226.375 85.574219 C 226.375 88.722656 229.90625 90.757812 239.382812 92.714844 Z M 239.382812 92.714844 " fill-opacity="1" fill-rule="nonzero"/><path fill="#ffffff" d="M 611.761719 105.417969 L 611.761719 109.425781 L 582.988281 109.425781 C 583.617188 114.132812 587.53125 117.023438 592.316406 117.023438 C 596.472656 117.023438 599.761719 114.992188 602.191406 110.90625 L 610.664062 115.695312 C 606.976562 123.308594 600.710938 127.070312 591.839844 127.070312 C 586.429688 127.070312 581.71875 125.113281 577.730469 121.257812 C 573.816406 117.421875 571.84375 112.484375 571.84375 106.519531 C 571.84375 100.558594 573.800781 95.542969 577.730469 91.703125 C 581.644531 87.867188 586.597656 85.984375 592.636719 85.984375 C 598.355469 85.984375 602.910156 87.867188 606.441406 91.628906 C 609.976562 95.3125 611.777344 99.945312 611.777344 105.433594 Z M 592.390625 95.066406 C 588.078125 95.066406 584.714844 97.347656 583.445312 101.183594 L 601.167969 101.183594 C 600.21875 97.347656 596.855469 95.066406 592.375 95.066406 Z M 592.390625 95.066406 " fill-opacity="1" fill-rule="nonzero"/><path fill="#ffffff" d="M 548.800781 96.949219 C 548.800781 98.90625 551.554688 100.082031 557.117188 101.335938 C 566.445312 103.292969 570.375 106.980469 570.375 113.8125 C 570.375 117.652344 568.890625 120.785156 565.910156 123.308594 C 563.003906 125.816406 559.167969 127.070312 554.457031 127.070312 C 545.589844 127.070312 539.320312 122.988281 535.789062 114.914062 L 544.808594 109.347656 C 546.921875 114.761719 550.222656 117.496094 554.609375 117.496094 C 557.667969 117.496094 559.550781 116.320312 559.550781 114.441406 C 559.550781 112.160156 557.441406 110.984375 552.101562 109.976562 C 544.03125 108.402344 538.464844 104.164062 538.464844 97.5 C 538.464844 93.96875 539.871094 91.152344 542.699219 89.105469 C 545.605469 86.996094 549.046875 85.972656 553.203125 85.972656 C 561.75 85.972656 566.308594 89.027344 569.824219 95.925781 L 561.355469 100.863281 C 560.023438 96.550781 556.890625 94.273438 553.355469 94.273438 C 550.300781 94.273438 548.800781 95.128906 548.800781 96.933594 Z M 548.800781 96.949219 " fill-opacity="1" fill-rule="nonzero"/><path fill="#ffffff" d="M 494.90625 110.585938 L 494.90625 87.054688 L 506.664062 87.054688 L 506.664062 107.988281 C 506.664062 113.003906 509.171875 115.90625 513.558594 115.90625 C 518.664062 115.90625 521.402344 111.75 521.402344 105.785156 L 521.402344 87.042969 L 533.160156 87.042969 L 533.160156 125.9375 L 521.402344 125.9375 L 521.402344 120.296875 C 518.816406 124.609375 515.605469 127.039062 509.324219 127.039062 C 505.164062 127.039062 501.722656 125.554688 498.972656 122.652344 C 496.234375 119.667969 494.890625 115.679688 494.890625 110.570312 Z M 494.90625 110.585938 " fill-opacity="1" fill-rule="nonzero"/><path fill="#ffffff" d="M 485.457031 91.460938 C 489.691406 94.992188 491.800781 100.007812 491.800781 106.519531 C 491.800781 113.035156 489.675781 118.046875 485.457031 121.65625 C 481.222656 125.265625 476.128906 127.070312 470.167969 127.070312 C 464.203125 127.070312 459.1875 125.265625 454.953125 121.65625 C 450.792969 118.046875 448.683594 113.035156 448.683594 106.519531 C 448.683594 100.007812 450.808594 94.992188 454.953125 91.382812 C 459.1875 87.773438 464.28125 85.972656 470.167969 85.972656 C 476.054688 85.972656 481.222656 87.773438 485.457031 91.460938 Z M 463.421875 113.414062 C 465.304688 115.066406 467.582031 115.921875 470.167969 115.921875 C 472.75 115.921875 475.105469 115.066406 476.984375 113.414062 C 478.941406 111.6875 479.890625 109.410156 479.890625 106.519531 C 479.890625 103.628906 478.941406 101.351562 476.984375 99.699219 C 475.105469 97.972656 472.828125 97.117188 470.167969 97.117188 C 467.507812 97.117188 465.304688 97.972656 463.421875 99.699219 C 461.542969 101.351562 460.59375 103.613281 460.59375 106.519531 C 460.59375 109.425781 461.542969 111.703125 463.421875 113.414062 Z M 463.421875 113.414062 " fill-opacity="1" fill-rule="nonzero"/><path fill="#ffffff" d="M 445.425781 99.457031 L 445.425781 125.96875 L 433.671875 125.96875 L 433.671875 105.191406 C 433.671875 100.25 431.085938 97.117188 426.375 97.117188 C 421.667969 97.117188 417.984375 101.199219 417.984375 107.238281 L 417.984375 125.984375 L 406.226562 125.984375 L 406.226562 71.0625 L 417.984375 71.0625 L 417.984375 92.46875 C 421.363281 88.15625 425.828125 85.957031 431.316406 85.957031 C 439.863281 85.957031 445.425781 91.214844 445.425781 99.441406 Z M 445.425781 99.457031 " fill-opacity="1" fill-rule="nonzero"/><path fill="#ffffff" d="M 253.3125 176.332031 L 226.878906 176.332031 L 226.878906 197.617188 L 214.25 197.617188 L 214.25 143.046875 L 255.578125 143.046875 L 255.578125 154.117188 L 226.894531 154.117188 L 226.894531 165.582031 L 253.328125 165.582031 L 253.328125 176.347656 Z M 271.859375 197.617188 L 260.164062 197.617188 L 260.164062 158.949219 L 271.859375 158.949219 Z M 272.320312 154.421875 L 259.6875 154.421875 L 259.6875 141.945312 L 272.320312 141.945312 Z M 315.421875 171.273438 L 315.421875 197.617188 L 303.722656 197.617188 L 303.722656 176.5625 C 303.722656 171.960938 301.460938 168.917969 296.859375 168.917969 C 292.257812 168.917969 289.0625 172.816406 289.0625 178.976562 L 289.0625 197.617188 L 277.363281 197.617188 L 277.363281 158.949219 L 289.0625 158.949219 L 289.0625 164.484375 C 292.257812 160.035156 296.382812 157.863281 301.613281 157.863281 C 310.265625 157.863281 315.421875 163.246094 315.421875 171.273438 Z M 357.910156 197.617188 L 346.058594 197.617188 C 344.976562 196.53125 344.347656 194.894531 344.195312 192.632812 C 341.304688 196.683594 337.40625 198.714844 332.34375 198.714844 C 323.84375 198.714844 318.707031 193.65625 318.707031 186.394531 C 318.707031 179.128906 324.714844 175.019531 333.828125 173.535156 L 343.644531 171.976562 L 343.644531 171.273438 C 343.644531 167.527344 341.609375 165.660156 337.636719 165.660156 C 334.132812 165.660156 331.703125 166.992188 331.703125 169.160156 C 331.703125 169.390625 331.703125 169.636719 331.78125 169.863281 L 321.183594 173.457031 C 320.800781 171.898438 320.558594 170.644531 320.558594 169.710938 C 320.558594 166.210938 322.191406 163.320312 325.390625 161.132812 C 328.660156 158.949219 332.710938 157.863281 337.636719 157.863281 C 349.410156 157.863281 355.339844 162.769531 355.339844 172.527344 L 355.339844 188.042969 C 355.339844 191.941406 356.199219 195.140625 357.910156 197.632812 Z M 334.746094 189.664062 C 337.390625 189.664062 339.5 188.730469 341.136719 186.851562 C 342.773438 184.910156 343.628906 182.722656 343.628906 180.230469 L 343.628906 179.527344 L 335.359375 180.933594 C 331.855469 181.484375 330.050781 183.042969 330.050781 185.613281 C 330.050781 187.800781 331.917969 189.664062 334.730469 189.664062 Z M 398.734375 171.273438 L 398.734375 197.617188 L 387.035156 197.617188 L 387.035156 176.5625 C 387.035156 171.960938 384.773438 168.917969 380.171875 168.917969 C 375.570312 168.917969 372.375 172.816406 372.375 178.976562 L 372.375 197.617188 L 360.675781 197.617188 L 360.675781 158.949219 L 372.375 158.949219 L 372.375 164.484375 C 375.570312 160.035156 379.699219 157.863281 384.925781 157.863281 C 393.582031 157.863281 398.734375 163.246094 398.734375 171.273438 Z M 431.453125 181.242188 L 441.117188 187.480469 C 437.371094 194.96875 431.207031 198.703125 422.644531 198.703125 C 416.730469 198.703125 411.804688 196.835938 407.832031 193.089844 C 403.933594 189.265625 401.988281 184.359375 401.988281 178.273438 C 401.988281 172.1875 404.023438 167.433594 408.074219 163.613281 C 412.125 159.789062 416.957031 157.847656 422.660156 157.847656 C 431.164062 157.847656 437.15625 161.347656 440.671875 168.367188 L 431.238281 174.679688 C 429.296875 170.628906 426.484375 168.597656 422.660156 168.597656 C 417.433594 168.597656 413.855469 172.34375 413.855469 178.257812 C 413.855469 184.175781 417.28125 187.921875 422.585938 187.921875 C 426.484375 187.921875 429.449219 185.660156 431.46875 181.210938 Z M 456.144531 197.617188 L 444.449219 197.617188 L 444.449219 158.949219 L 456.144531 158.949219 Z M 456.621094 154.421875 L 443.992188 154.421875 L 443.992188 141.945312 L 456.621094 141.945312 Z M 498.863281 197.617188 L 487.015625 197.617188 C 485.929688 196.53125 485.304688 194.894531 485.148438 192.632812 C 482.261719 196.683594 478.363281 198.714844 473.300781 198.714844 C 464.800781 198.714844 459.664062 193.65625 459.664062 186.394531 C 459.664062 179.128906 465.671875 175.019531 474.785156 173.535156 L 484.601562 171.976562 L 484.601562 171.273438 C 484.601562 167.527344 482.582031 165.660156 478.589844 165.660156 C 475.089844 165.660156 472.675781 166.992188 472.675781 169.160156 C 472.675781 169.390625 472.675781 169.636719 472.75 169.863281 L 462.15625 173.457031 C 461.757812 171.898438 461.527344 170.644531 461.527344 169.710938 C 461.527344 166.210938 463.164062 163.320312 466.359375 161.132812 C 469.632812 158.949219 473.683594 157.863281 478.605469 157.863281 C 490.378906 157.863281 496.296875 162.769531 496.296875 172.527344 L 496.296875 188.042969 C 496.296875 191.941406 497.152344 195.140625 498.863281 197.632812 Z M 475.714844 189.664062 C 478.363281 189.664062 480.472656 188.730469 482.109375 186.851562 C 483.742188 184.910156 484.601562 182.722656 484.601562 180.230469 L 484.601562 179.527344 L 476.34375 180.933594 C 472.84375 181.484375 471.039062 183.042969 471.039062 185.613281 C 471.039062 187.800781 472.902344 189.664062 475.714844 189.664062 Z M 513.421875 197.617188 L 501.722656 197.617188 L 501.722656 143.046875 L 513.421875 143.046875 Z M 513.421875 197.617188 " fill-opacity="1" fill-rule="nonzero"/><path fill="#ffffff" d="M 380.003906 97.347656 L 390.355469 87.070312 L 400.765625 87.070312 L 400.765625 91.0625 L 390.8125 100.785156 L 400.765625 116.289062 L 400.765625 125.953125 L 393.089844 125.953125 L 382.34375 109.089844 L 379.988281 111.441406 L 379.988281 125.953125 L 368.230469 125.953125 L 368.230469 71.0625 L 379.988281 71.0625 L 379.988281 97.332031 Z M 406.972656 125.96875 L 406.210938 125.96875 L 406.210938 124.777344 Z M 406.972656 125.96875 " fill-opacity="1" fill-rule="nonzero"/><path fill="#ffffff" d="M 187.09375 58.496094 L 152.875 92.714844 C 149.023438 96.566406 144.3125 99.363281 139.207031 100.9375 C 136.101562 101.886719 132.847656 102.375 129.542969 102.375 L 65.832031 102.375 C 62.53125 102.375 59.273438 101.886719 56.167969 100.9375 C 51.046875 99.363281 46.351562 96.566406 42.5 92.714844 C 31.078125 81.292969 19.6875 69.902344 8.28125 58.480469 C 7.210938 57.410156 6.140625 56.355469 5.085938 55.285156 C 5.332031 57.625 5.667969 60.132812 6.171875 62.777344 C 7.121094 67.835938 8.585938 73.433594 10.867188 79.304688 C 11.785156 81.675781 12.777344 83.9375 13.832031 86.109375 C 16.507812 91.613281 19.550781 96.476562 22.714844 100.769531 C 28.679688 108.84375 36.78125 114.898438 45.925781 118.429688 C 51.933594 120.753906 58.402344 121.976562 65.007812 121.976562 L 130.355469 121.976562 C 136.960938 121.976562 143.425781 120.738281 149.4375 118.429688 C 158.578125 114.898438 166.667969 108.859375 172.644531 100.769531 C 175.808594 96.488281 178.851562 91.613281 181.527344 86.125 C 182.582031 83.953125 183.578125 81.691406 184.496094 79.320312 C 186.773438 73.449219 188.257812 67.867188 189.1875 62.792969 C 189.695312 60.148438 190.03125 57.640625 190.273438 55.300781 C 189.203125 56.371094 188.132812 57.441406 187.078125 58.496094 Z M 12.195312 127.957031 L 34.703125 150.476562 L 70.34375 150.476562 L 52.53125 168.289062 L 66.382812 182.140625 L 98.046875 150.476562 L 159.957031 150.476562 L 182.476562 127.957031 C 174.816406 120.3125 162.417969 120.296875 154.757812 127.957031 L 151.835938 130.875 L 42.820312 130.875 L 39.902344 127.957031 C 36.078125 124.132812 31.0625 122.222656 26.046875 122.222656 C 21.035156 122.222656 16.019531 124.132812 12.195312 127.957031 Z M 102.984375 159.375 L 72.988281 188.761719 L 85.90625 201.683594 C 92.207031 207.980469 102.433594 207.980469 108.734375 201.683594 L 151.042969 159.375 Z M 102.984375 159.375 " fill-opacity="1" fill-rule="nonzero"/></svg>